<svg xmlns="http://www.w3.org/2000/svg" version="1.1" xmlns:xlink="http://www.w3.org/1999/xlink" xmlns:svgjs="http://svgjs.dev/svgjs" viewBox="0 0 800 800" opacity="1"><defs><linearGradient x1="50%" y1="0%" x2="50%" y2="100%" id="nnneon-grad"><stop stop-color="#0b4236" stop-opacity="1" offset="0%"></stop><stop stop-color="#21b897" stop-opacity="1" offset="100%"></stop></linearGradient><filter id="nnneon-filter" x="-100%" y="-100%" width="400%" height="400%" filterUnits="objectBoundingBox" primitiveUnits="userSpaceOnUse" color-interpolation-filters="sRGB">
	<feGaussianBlur stdDeviation="17 9" x="0%" y="0%" width="100%" height="100%" in="SourceGraphic" edgeMode="none" result="blur"></feGaussianBlur></filter><filter id="nnneon-filter2" x="-100%" y="-100%" width="400%" height="400%" filterUnits="objectBoundingBox" primitiveUnits="userSpaceOnUse" color-interpolation-filters="sRGB">
	<feGaussianBlur stdDeviation="10 18" x="0%" y="0%" width="100%" height="100%" in="SourceGraphic" edgeMode="none" result="blur"></feGaussianBlur></filter></defs><g stroke-width="23" stroke="url(#nnneon-grad)" fill="none"><path d="M374.98155373724103 39.16600345851123C390.4629871689136 30.22940355257481 409.5370738662426 30.22940355257481 425.0185072979152 39.168505306189275L699.9815745045314 197.91824602046182C715.4630079362039 206.85484592639818 725.0000512848684 223.37454614445477 725.0000512848684 241.25024780400565V558.7497292325507C725.0000512848684 576.6254308921018 715.4630079362039 593.1451311101583 699.9815745045314 602.0842328637726L425.0185072979152 760.8339735780452C409.5370738662426 769.7705734839816 390.4629871689136 769.7705734839816 374.98155373724103 760.8314717303673L100.0184865306249 602.0817310160947C84.53705309895236 593.1451311101583 75.00000975028786 576.6254308921018 75.00000975028786 558.7497292325507V241.25024780400565C75.00000975028786 223.37454614445477 84.53705309895236 206.85484592639818 100.0184865306249 197.9157441727839L374.98155373724103 39.16600345851123Z " filter="url(#nnneon-filter)"></path><path d="M386.98155373724103 39.16600345851123C402.4629871689136 30.22940355257481 421.5370738662426 30.22940355257481 437.0185072979152 39.168505306189275L711.9815745045314 197.91824602046182C727.4630079362039 206.85484592639818 737.0000512848684 223.37454614445477 737.0000512848684 241.25024780400565V558.7497292325507C737.0000512848684 576.6254308921018 727.4630079362039 593.1451311101583 711.9815745045314 602.0842328637726L437.0185072979152 760.8339735780452C421.5370738662426 769.7705734839816 402.4629871689136 769.7705734839816 386.98155373724103 760.8314717303673L112.0184865306249 602.0817310160947C96.53705309895236 593.1451311101583 87.00000975028786 576.6254308921018 87.00000975028786 558.7497292325507V241.25024780400565C87.00000975028786 223.37454614445477 96.53705309895236 206.85484592639818 112.0184865306249 197.9157441727839L386.98155373724103 39.16600345851123Z " filter="url(#nnneon-filter2)" opacity="0.25"></path><path d="M362.98155373724103 39.16600345851123C378.4629871689136 30.22940355257481 397.5370738662426 30.22940355257481 413.0185072979152 39.168505306189275L687.9815745045314 197.91824602046182C703.4630079362039 206.85484592639818 713.0000512848684 223.37454614445477 713.0000512848684 241.25024780400565V558.7497292325507C713.0000512848684 576.6254308921018 703.4630079362039 593.1451311101583 687.9815745045314 602.0842328637726L413.0185072979152 760.8339735780452C397.5370738662426 769.7705734839816 378.4629871689136 769.7705734839816 362.98155373724103 760.8314717303673L88.0184865306249 602.0817310160947C72.53705309895236 593.1451311101583 63.00000975028786 576.6254308921018 63.00000975028786 558.7497292325507V241.25024780400565C63.00000975028786 223.37454614445477 72.53705309895236 206.85484592639818 88.0184865306249 197.9157441727839L362.98155373724103 39.16600345851123Z " filter="url(#nnneon-filter2)" opacity="0.25"></path><path d="M374.98155373724103 39.16600345851123C390.4629871689136 30.22940355257481 409.5370738662426 30.22940355257481 425.0185072979152 39.168505306189275L699.9815745045314 197.91824602046182C715.4630079362039 206.85484592639818 725.0000512848684 223.37454614445477 725.0000512848684 241.25024780400565V558.7497292325507C725.0000512848684 576.6254308921018 715.4630079362039 593.1451311101583 699.9815745045314 602.0842328637726L425.0185072979152 760.8339735780452C409.5370738662426 769.7705734839816 390.4629871689136 769.7705734839816 374.98155373724103 760.8314717303673L100.0184865306249 602.0817310160947C84.53705309895236 593.1451311101583 75.00000975028786 576.6254308921018 75.00000975028786 558.7497292325507V241.25024780400565C75.00000975028786 223.37454614445477 84.53705309895236 206.85484592639818 100.0184865306249 197.9157441727839L374.98155373724103 39.16600345851123Z "></path></g></svg>